<mxfile host="Electron" modified="2024-03-04T03:14:29.446Z" agent="Mozilla/5.0 (Windows NT 10.0; Win64; x64) AppleWebKit/537.36 (KHTML, like Gecko) draw.io/23.1.5 Chrome/120.0.6099.109 Electron/28.1.0 Safari/537.36" etag="-WNIW_sed_ZvByIMDd1B" version="23.1.5" type="device">
  <diagram name="Page-1" id="yiowPWi1wD7vBIXToP4I">
    <mxGraphModel dx="1061" dy="921" grid="1" gridSize="10" guides="1" tooltips="1" connect="1" arrows="1" fold="1" page="1" pageScale="1" pageWidth="827" pageHeight="1169" math="1" shadow="0">
      <root>
        <mxCell id="0" />
        <mxCell id="1" parent="0" />
        <mxCell id="4NF_i-zTt4eTXNXRWmIU-20" value="$$F_{A3}$$" style="text;html=1;align=center;verticalAlign=middle;resizable=0;points=[];autosize=1;strokeColor=none;fillColor=none;fontFamily=Helvetica;fontSize=11;fontColor=default;labelBackgroundColor=default;" parent="1" vertex="1">
          <mxGeometry x="710" y="140" width="80" height="30" as="geometry" />
        </mxCell>
        <mxCell id="4NF_i-zTt4eTXNXRWmIU-7" style="edgeStyle=none;rounded=0;orthogonalLoop=1;jettySize=auto;html=1;strokeColor=default;align=center;verticalAlign=middle;fontFamily=Helvetica;fontSize=11;fontColor=default;labelBackgroundColor=default;endArrow=none;endFill=0;exitX=0.09;exitY=0.502;exitDx=0;exitDy=0;exitPerimeter=0;startArrow=blockThin;startFill=1;strokeWidth=2;" parent="1" source="4NF_i-zTt4eTXNXRWmIU-1" edge="1">
          <mxGeometry relative="1" as="geometry">
            <mxPoint x="50" y="180" as="targetPoint" />
          </mxGeometry>
        </mxCell>
        <mxCell id="4NF_i-zTt4eTXNXRWmIU-1" value="" style="shape=mxgraph.pid.vessels.jacketed_mixing_vessel;html=1;pointerEvents=1;align=center;verticalLabelPosition=bottom;verticalAlign=top;dashed=0;strokeWidth=2;" parent="1" vertex="1">
          <mxGeometry x="110" y="93" width="100" height="174" as="geometry" />
        </mxCell>
        <mxCell id="4NF_i-zTt4eTXNXRWmIU-2" value="" style="shape=mxgraph.pid.vessels.reactor;html=1;pointerEvents=1;align=center;verticalLabelPosition=bottom;verticalAlign=top;dashed=0;rotation=90;strokeWidth=2;" parent="1" vertex="1">
          <mxGeometry x="385" y="100" width="40" height="160" as="geometry" />
        </mxCell>
        <mxCell id="4NF_i-zTt4eTXNXRWmIU-8" style="edgeStyle=none;rounded=0;orthogonalLoop=1;jettySize=auto;html=1;strokeColor=default;align=center;verticalAlign=middle;fontFamily=Helvetica;fontSize=11;fontColor=default;labelBackgroundColor=default;endArrow=blockThin;endFill=1;exitX=0.908;exitY=0.497;exitDx=0;exitDy=0;exitPerimeter=0;strokeWidth=2;" parent="1" source="4NF_i-zTt4eTXNXRWmIU-3" edge="1">
          <mxGeometry relative="1" as="geometry">
            <mxPoint x="750" y="180" as="targetPoint" />
          </mxGeometry>
        </mxCell>
        <mxCell id="4NF_i-zTt4eTXNXRWmIU-3" value="" style="shape=mxgraph.pid.vessels.jacketed_mixing_vessel;html=1;pointerEvents=1;align=center;verticalLabelPosition=bottom;verticalAlign=top;dashed=0;strokeWidth=2;" parent="1" vertex="1">
          <mxGeometry x="600" y="93" width="100" height="174" as="geometry" />
        </mxCell>
        <mxCell id="4NF_i-zTt4eTXNXRWmIU-5" style="edgeStyle=none;rounded=0;orthogonalLoop=1;jettySize=auto;html=1;entryX=0.483;entryY=1.002;entryDx=0;entryDy=0;entryPerimeter=0;strokeColor=default;align=center;verticalAlign=middle;fontFamily=Helvetica;fontSize=11;fontColor=default;labelBackgroundColor=default;endArrow=blockThin;endFill=1;exitX=0.893;exitY=0.504;exitDx=0;exitDy=0;exitPerimeter=0;strokeWidth=2;" parent="1" source="4NF_i-zTt4eTXNXRWmIU-1" target="4NF_i-zTt4eTXNXRWmIU-2" edge="1">
          <mxGeometry relative="1" as="geometry" />
        </mxCell>
        <mxCell id="4NF_i-zTt4eTXNXRWmIU-6" style="edgeStyle=none;rounded=0;orthogonalLoop=1;jettySize=auto;html=1;entryX=0.117;entryY=0.5;entryDx=0;entryDy=0;entryPerimeter=0;strokeColor=default;align=center;verticalAlign=middle;fontFamily=Helvetica;fontSize=11;fontColor=default;labelBackgroundColor=default;endArrow=blockThin;endFill=1;strokeWidth=2;" parent="1" source="4NF_i-zTt4eTXNXRWmIU-2" target="4NF_i-zTt4eTXNXRWmIU-3" edge="1">
          <mxGeometry relative="1" as="geometry" />
        </mxCell>
        <mxCell id="4NF_i-zTt4eTXNXRWmIU-11" value="$$F_{A1}$$" style="text;html=1;align=center;verticalAlign=middle;resizable=0;points=[];autosize=1;strokeColor=none;fillColor=none;fontFamily=Helvetica;fontSize=11;fontColor=default;labelBackgroundColor=default;" parent="1" vertex="1">
          <mxGeometry x="225" y="140" width="80" height="30" as="geometry" />
        </mxCell>
        <mxCell id="4NF_i-zTt4eTXNXRWmIU-14" value="$$i = 1$$" style="text;html=1;align=center;verticalAlign=middle;resizable=0;points=[];autosize=1;strokeColor=none;fillColor=none;fontFamily=Helvetica;fontSize=11;fontColor=default;labelBackgroundColor=default;" parent="1" vertex="1">
          <mxGeometry x="230" y="190" width="70" height="30" as="geometry" />
        </mxCell>
        <mxCell id="4NF_i-zTt4eTXNXRWmIU-15" value="$$X_1$$" style="text;html=1;align=center;verticalAlign=middle;resizable=0;points=[];autosize=1;strokeColor=none;fillColor=none;fontFamily=Helvetica;fontSize=11;fontColor=default;labelBackgroundColor=default;" parent="1" vertex="1">
          <mxGeometry x="230" y="220" width="70" height="30" as="geometry" />
        </mxCell>
        <mxCell id="4NF_i-zTt4eTXNXRWmIU-16" value="$$F_{A0}$$" style="text;html=1;align=center;verticalAlign=middle;resizable=0;points=[];autosize=1;strokeColor=none;fillColor=none;fontFamily=Helvetica;fontSize=11;fontColor=default;labelBackgroundColor=default;" parent="1" vertex="1">
          <mxGeometry x="30" y="140" width="80" height="30" as="geometry" />
        </mxCell>
        <mxCell id="4NF_i-zTt4eTXNXRWmIU-17" value="$$F_{A2}$$" style="text;html=1;align=center;verticalAlign=middle;resizable=0;points=[];autosize=1;strokeColor=none;fillColor=none;fontFamily=Helvetica;fontSize=11;fontColor=default;labelBackgroundColor=default;" parent="1" vertex="1">
          <mxGeometry x="500" y="140" width="80" height="30" as="geometry" />
        </mxCell>
        <mxCell id="4NF_i-zTt4eTXNXRWmIU-18" value="$$i = 2$$" style="text;html=1;align=center;verticalAlign=middle;resizable=0;points=[];autosize=1;strokeColor=none;fillColor=none;fontFamily=Helvetica;fontSize=11;fontColor=default;labelBackgroundColor=default;" parent="1" vertex="1">
          <mxGeometry x="505" y="190" width="70" height="30" as="geometry" />
        </mxCell>
        <mxCell id="4NF_i-zTt4eTXNXRWmIU-19" value="$$X_2$$" style="text;html=1;align=center;verticalAlign=middle;resizable=0;points=[];autosize=1;strokeColor=none;fillColor=none;fontFamily=Helvetica;fontSize=11;fontColor=default;labelBackgroundColor=default;" parent="1" vertex="1">
          <mxGeometry x="505" y="220" width="70" height="30" as="geometry" />
        </mxCell>
        <mxCell id="4NF_i-zTt4eTXNXRWmIU-21" value="$$i = 3$$" style="text;html=1;align=center;verticalAlign=middle;resizable=0;points=[];autosize=1;strokeColor=none;fillColor=none;fontFamily=Helvetica;fontSize=11;fontColor=default;labelBackgroundColor=default;" parent="1" vertex="1">
          <mxGeometry x="715" y="190" width="70" height="30" as="geometry" />
        </mxCell>
        <mxCell id="4NF_i-zTt4eTXNXRWmIU-22" value="$$X_3$$" style="text;html=1;align=center;verticalAlign=middle;resizable=0;points=[];autosize=1;strokeColor=none;fillColor=none;fontFamily=Helvetica;fontSize=11;fontColor=default;labelBackgroundColor=default;" parent="1" vertex="1">
          <mxGeometry x="715" y="220" width="70" height="30" as="geometry" />
        </mxCell>
        <mxCell id="4NF_i-zTt4eTXNXRWmIU-23" value="$$V_{1}$$" style="text;html=1;align=center;verticalAlign=middle;resizable=0;points=[];autosize=1;strokeColor=none;fillColor=none;fontFamily=Helvetica;fontSize=11;fontColor=default;labelBackgroundColor=default;" parent="1" vertex="1">
          <mxGeometry x="125" y="290" width="70" height="30" as="geometry" />
        </mxCell>
        <mxCell id="4NF_i-zTt4eTXNXRWmIU-24" value="$$V_{2}$$" style="text;html=1;align=center;verticalAlign=middle;resizable=0;points=[];autosize=1;strokeColor=none;fillColor=none;fontFamily=Helvetica;fontSize=11;fontColor=default;labelBackgroundColor=default;" parent="1" vertex="1">
          <mxGeometry x="370" y="290" width="70" height="30" as="geometry" />
        </mxCell>
        <mxCell id="4NF_i-zTt4eTXNXRWmIU-25" value="$$V_{3}$$" style="text;html=1;align=center;verticalAlign=middle;resizable=0;points=[];autosize=1;strokeColor=none;fillColor=none;fontFamily=Helvetica;fontSize=11;fontColor=default;labelBackgroundColor=default;" parent="1" vertex="1">
          <mxGeometry x="615" y="290" width="70" height="30" as="geometry" />
        </mxCell>
      </root>
    </mxGraphModel>
  </diagram>
</mxfile>
